<svg width="50" height="51" viewBox="0 0 50 51" fill="none" xmlns="http://www.w3.org/2000/svg">
<path fill-rule="evenodd" clip-rule="evenodd" d="M16.737 9.6781L10.4998 16.4823L7.2627 12.9509L8.737 11.5994L10.4998 13.5225L15.2626 8.32666L16.737 9.6781Z" fill="#FF2D2D"/>
<path fill-rule="evenodd" clip-rule="evenodd" d="M18 6.00244H5V19.0024H18V6.00244ZM3 4.00244V21.0024H20V4.00244H3Z" fill="#FF2D2D"/>
<path d="M14 41.0024C21.6157 41.0024 27.3519 41.0024 33.7188 41.0024M10 41.0024H4.5C4.5 41.0024 4 39.455 4 36.3603C4 33.2656 7.5 29.1392 7.5 29.1392C7.5 29.1392 19 27.5919 24 28.1077C29 28.6235 34 32.234 34 32.234C34 32.234 44 34.155 45 35.3287C46 36.5024 45.5 41.0024 45.5 41.0024H38.8125H10Z" stroke="#FF2D2D" stroke-width="2"/>
<path d="M12 44.0024C13.6569 44.0024 15 42.6593 15 41.0024C15 39.3456 13.6569 38.0024 12 38.0024C10.3431 38.0024 9 39.3456 9 41.0024C9 42.6593 10.3431 44.0024 12 44.0024Z" stroke="#FF2D2D" stroke-width="2"/>
<path d="M36 44.0024C37.6569 44.0024 39 42.6593 39 41.0024C39 39.3456 37.6569 38.0024 36 38.0024C34.3431 38.0024 33 39.3456 33 41.0024C33 42.6593 34.3431 44.0024 36 44.0024Z" stroke="#FF2D2D" stroke-width="2"/>
</svg>
