<svg width="50" height="51" viewBox="0 0 50 51" fill="none" xmlns="http://www.w3.org/2000/svg">
<path d="M9 10.0024H36V45.0024H9V10.0024Z" stroke="#FF2D2D" stroke-width="2"/>
<path d="M15 10.0024V5.00244H41V42.0024H35" stroke="#FF2D2D" stroke-width="2"/>
<path d="M14 34.0994H26.341M17.756 39.0024V28.4274V39.0024ZM17.756 28.4274V17.0024H23.312C24.0621 17.0024 24.8049 17.1502 25.4979 17.4372C26.1909 17.7243 26.8206 18.145 27.351 18.6754C27.8814 19.2059 28.3021 19.8355 28.5892 20.5286C28.8763 21.2216 29.024 21.9643 29.024 22.7144V22.7144C29.0241 23.4646 28.8765 24.2075 28.5895 24.9006C28.3025 25.5938 27.8818 26.2236 27.3513 26.7541C26.8209 27.2846 26.1912 27.7054 25.4981 27.9925C24.805 28.2797 24.0622 28.4274 23.312 28.4274H17.756Z" stroke="#FF2D2D" stroke-width="2"/>
</svg>
