<svg width="50" height="51" viewBox="0 0 50 51" fill="none" xmlns="http://www.w3.org/2000/svg">
<path fill-rule="evenodd" clip-rule="evenodd" d="M10.3867 7.53744C14.0467 4.69744 18.6907 3.00244 23.7567 3.00244C29.0497 3.00244 33.8937 4.85244 37.6347 7.93144L36.3647 9.47544C32.9737 6.68544 28.5767 5.00244 23.7567 5.00244C19.1437 5.00244 14.9287 6.54444 11.6127 9.11744L10.3867 7.53744Z" fill="#FF2D2D"/>
<path fill-rule="evenodd" clip-rule="evenodd" d="M36.0712 8.07244V2.00244H38.0712V10.0724H30.0002V8.07244H36.0712ZM38.6132 41.5914C34.9532 44.4314 30.3092 46.1264 25.2432 46.1264C19.9502 46.1264 15.1062 44.2764 11.3652 41.1984L12.6352 39.6534C16.0262 42.4434 20.4232 44.1264 25.2432 44.1264C29.8562 44.1264 34.0712 42.5844 37.3872 40.0114L38.6132 41.5914Z" fill="#FF2D2D"/>
<path fill-rule="evenodd" clip-rule="evenodd" d="M12.5352 40.5383V46.6083H10.5352V38.5383H18.6052V40.5383H12.5352Z" fill="#FF2D2D"/>
<path d="M11.0748 16.8794C15.2728 16.0444 19.5958 16.0024 23.9068 16.0024C26.4368 16.0024 28.9938 16.7424 31.2108 17.6694C32.0838 18.0334 32.9508 18.5694 33.7368 19.0564C33.9788 19.2064 34.2128 19.3504 34.4368 19.4844C35.4558 20.0904 36.3568 20.5294 37.2768 20.6324C38.6298 20.7824 42.4228 21.5154 43.6068 21.8124C44.9498 22.1484 45.9408 22.8174 46.5598 23.2824C47.1648 23.7374 47.4668 24.4784 47.6378 25.0914C47.8208 25.7454 47.9118 26.4754 47.9578 27.1314C48.0038 27.7944 48.0048 28.4194 47.9958 28.8754C47.9848 29.4454 47.9388 30.0114 47.8998 30.5794L40.9668 30.5304C41.0552 29.8534 40.9706 29.1649 40.7208 28.5294L46.0008 28.5664C46.0028 28.1904 45.9948 27.7374 45.9618 27.2704C45.9208 26.6784 45.8418 26.0984 45.7118 25.6284C45.5688 25.1184 45.4148 24.9244 45.3578 24.8814C44.8238 24.4804 44.0848 23.9934 43.1218 23.7514C41.9998 23.4714 38.2978 22.7584 37.0558 22.6204C35.6808 22.4664 34.4658 21.8294 33.4138 21.2024C33.1218 21.0284 32.8438 20.8574 32.5778 20.6924C31.8258 20.2284 31.1528 19.8124 30.4398 19.5144C28.3518 18.6424 26.0698 18.0024 23.9068 18.0024C19.5628 18.0024 15.4118 18.0494 11.4198 18.8494L11.3698 18.8594L11.3188 18.8644C10.8838 18.9064 10.2428 19.0364 9.63281 19.1714C9.36724 19.2294 9.1019 19.2884 8.83681 19.3484L8.75281 19.3654C8.00513 20.3756 7.37129 21.4652 6.86281 22.6144C6.02581 24.5304 5.62481 26.6044 6.46681 28.2884L9.37581 28.3084C9.08329 28.9316 8.95786 29.6201 9.01181 30.3064L5.35181 30.2804L5.05781 29.8374C3.29581 27.1874 4.05581 24.0444 5.02881 21.8144C5.46764 20.8234 5.9902 19.8716 6.59081 18.9694C6.83161 18.606 7.0851 18.2511 7.35081 17.9054L7.41381 17.8254L7.72081 17.4474H8.14581L8.1708 17.4424C8.22781 17.4324 8.30781 17.4154 8.41381 17.3924L8.80381 17.3064L9.20381 17.2174C9.77881 17.0914 10.5078 16.9374 11.0748 16.8794Z" fill="#FF2D2D"/>
<path d="M33.3024 28.4764L16.6494 28.3594C16.7858 28.6623 16.8835 28.9811 16.9404 29.3084L16.9444 29.3304V29.3314C16.9531 29.3833 16.9611 29.4353 16.9684 29.4874V29.4954C16.9911 29.6634 17.0021 29.8328 17.0014 30.0024C17.0014 30.1234 16.9954 30.2434 16.9854 30.3624L33.0294 30.4754C32.9481 29.7969 33.0424 29.1089 33.3034 28.4774L33.3024 28.4764Z" fill="#FF2D2D"/>
<path fill-rule="evenodd" clip-rule="evenodd" d="M16.9444 29.3303L16.9414 29.3083C16.9414 29.3163 16.9434 29.3234 16.9454 29.3314L16.9444 29.3303ZM16.9694 29.4953L16.9734 29.5283L16.9694 29.4953Z" fill="black"/>
<path fill-rule="evenodd" clip-rule="evenodd" d="M12.9995 32.0025C13.53 32.0025 14.0387 31.7918 14.4137 31.4167C14.7888 31.0416 14.9995 30.5329 14.9995 30.0025C14.9995 29.472 14.7888 28.9633 14.4137 28.5883C14.0387 28.2132 13.53 28.0025 12.9995 28.0025C12.4691 28.0025 11.9604 28.2132 11.5853 28.5883C11.2102 28.9633 10.9995 29.472 10.9995 30.0025C10.9995 30.5329 11.2102 31.0416 11.5853 31.4167C11.9604 31.7918 12.4691 32.0025 12.9995 32.0025ZM12.9995 34.0025C14.0605 34.0025 15.0781 33.581 15.8283 32.8307C16.5785 32.0805 17 31.063 17 30.002C17 28.941 16.5785 27.9234 15.8283 27.1732C15.0781 26.4229 14.0605 26.0015 12.9995 26.0015C11.9385 26.0015 10.921 26.4229 10.1707 27.1732C9.4205 27.9234 8.99902 28.941 8.99902 30.002C8.99902 31.063 9.4205 32.0805 10.1707 32.8307C10.921 33.581 11.9385 34.0025 12.9995 34.0025ZM36.9995 32.0025C37.53 32.0025 38.0387 31.7918 38.4137 31.4167C38.7888 31.0416 38.9995 30.5329 38.9995 30.0025C38.9995 29.472 38.7888 28.9633 38.4137 28.5883C38.0387 28.2132 37.53 28.0025 36.9995 28.0025C36.4691 28.0025 35.9604 28.2132 35.5853 28.5883C35.2102 28.9633 34.9995 29.472 34.9995 30.0025C34.9995 30.5329 35.2102 31.0416 35.5853 31.4167C35.9604 31.7918 36.4691 32.0025 36.9995 32.0025ZM36.9995 34.0025C38.0604 34.0025 39.0778 33.581 39.8279 32.8309C40.5781 32.0807 40.9995 31.0633 40.9995 30.0025C40.9995 28.9416 40.5781 27.9242 39.8279 27.174C39.0778 26.4239 38.0604 26.0025 36.9995 26.0025C35.9387 26.0025 34.9212 26.4239 34.1711 27.174C33.421 27.9242 32.9995 28.9416 32.9995 30.0025C32.9995 31.0633 33.421 32.0807 34.1711 32.8309C34.9212 33.581 35.9387 34.0025 36.9995 34.0025Z" fill="#FF2D2D"/>
</svg>
